<svg xmlns="http://www.w3.org/2000/svg" viewBox="0 0 128 128"><defs><style>.cls-1{opacity:0;}.cls-2{fill:#1a1a1a;}.cls-3{fill:#324652;}</style></defs><title>hexagon-unranked</title><g id="Layer_2" data-name="Layer 2"><g id="Display"><g class="cls-1"><rect class="cls-2" width="128" height="128"/></g><path class="cls-3" d="M64,89.8a5,5,0,0,1-2.5-.67l-18-10.4A5,5,0,0,1,41,74.4V53.6a5,5,0,0,1,2.5-4.33l18-10.4a5,5,0,0,1,5,0l18,10.4A5,5,0,0,1,87,53.6V74.4a5,5,0,0,1-2.5,4.33l-18,10.4A5,5,0,0,1,64,89.8Z"/><path class="cls-2" d="M64,40.2a3,3,0,0,1,1.5.4l18,10.4A3,3,0,0,1,85,53.6V74.4a3,3,0,0,1-1.5,2.6l-18,10.4a3,3,0,0,1-3,0L44.48,77A3,3,0,0,1,43,74.4V53.6a3,3,0,0,1,1.5-2.6l18-10.4a3,3,0,0,1,1.5-.4m0-4a7,7,0,0,0-3.5.93l-18,10.41A7,7,0,0,0,39,53.6V74.4a7,7,0,0,0,3.5,6.06l18,10.41a7.05,7.05,0,0,0,7,0l18-10.41A7,7,0,0,0,89,74.4V53.6a7,7,0,0,0-3.5-6.06l-18-10.41A7,7,0,0,0,64,36.2Z"/></g></g></svg>